<mxfile host="app.diagrams.net" modified="2022-04-07T11:38:16.588Z" agent="5.0 (Macintosh; Intel Mac OS X 10_15_7) AppleWebKit/537.36 (KHTML, like Gecko) Chrome/100.0.4896.75 Safari/537.36" etag="kxBJvnwN1XEdCKDnFtAQ" version="17.4.0" type="github">
  <diagram id="YcWkdc3Y5TRICu1kuLH6" name="Page-1">
    <mxGraphModel dx="1113" dy="639" grid="1" gridSize="10" guides="1" tooltips="1" connect="1" arrows="1" fold="1" page="1" pageScale="1" pageWidth="827" pageHeight="1169" math="0" shadow="0">
      <root>
        <mxCell id="0" />
        <mxCell id="1" parent="0" />
        <mxCell id="4x42rTsJrZFUKqrQ-v9c-3" style="edgeStyle=orthogonalEdgeStyle;rounded=0;orthogonalLoop=1;jettySize=auto;html=1;exitX=0.5;exitY=1;exitDx=0;exitDy=0;" edge="1" parent="1" source="4x42rTsJrZFUKqrQ-v9c-1" target="4x42rTsJrZFUKqrQ-v9c-2">
          <mxGeometry relative="1" as="geometry" />
        </mxCell>
        <mxCell id="4x42rTsJrZFUKqrQ-v9c-1" value="开始" style="ellipse;whiteSpace=wrap;html=1;aspect=fixed;" vertex="1" parent="1">
          <mxGeometry x="120" y="80" width="80" height="80" as="geometry" />
        </mxCell>
        <mxCell id="4x42rTsJrZFUKqrQ-v9c-5" style="edgeStyle=orthogonalEdgeStyle;rounded=0;orthogonalLoop=1;jettySize=auto;html=1;exitX=0.5;exitY=1;exitDx=0;exitDy=0;entryX=0.5;entryY=0;entryDx=0;entryDy=0;" edge="1" parent="1" source="4x42rTsJrZFUKqrQ-v9c-2" target="4x42rTsJrZFUKqrQ-v9c-4">
          <mxGeometry relative="1" as="geometry" />
        </mxCell>
        <mxCell id="4x42rTsJrZFUKqrQ-v9c-2" value="仓储/运输订单上传" style="rounded=1;whiteSpace=wrap;html=1;" vertex="1" parent="1">
          <mxGeometry x="100" y="200" width="120" height="60" as="geometry" />
        </mxCell>
        <mxCell id="4x42rTsJrZFUKqrQ-v9c-7" style="edgeStyle=orthogonalEdgeStyle;rounded=0;orthogonalLoop=1;jettySize=auto;html=1;exitX=0.5;exitY=1;exitDx=0;exitDy=0;entryX=0.5;entryY=0;entryDx=0;entryDy=0;" edge="1" parent="1" source="4x42rTsJrZFUKqrQ-v9c-4" target="4x42rTsJrZFUKqrQ-v9c-6">
          <mxGeometry relative="1" as="geometry" />
        </mxCell>
        <mxCell id="4x42rTsJrZFUKqrQ-v9c-4" value="合并订单为JOB" style="rounded=1;whiteSpace=wrap;html=1;" vertex="1" parent="1">
          <mxGeometry x="100" y="300" width="120" height="60" as="geometry" />
        </mxCell>
        <mxCell id="4x42rTsJrZFUKqrQ-v9c-9" style="edgeStyle=orthogonalEdgeStyle;rounded=0;orthogonalLoop=1;jettySize=auto;html=1;exitX=1;exitY=0.5;exitDx=0;exitDy=0;entryX=0.5;entryY=0;entryDx=0;entryDy=0;" edge="1" parent="1" source="4x42rTsJrZFUKqrQ-v9c-6" target="4x42rTsJrZFUKqrQ-v9c-8">
          <mxGeometry relative="1" as="geometry" />
        </mxCell>
        <mxCell id="4x42rTsJrZFUKqrQ-v9c-6" value="各执行人收到相关JOB" style="rounded=1;whiteSpace=wrap;html=1;" vertex="1" parent="1">
          <mxGeometry x="100" y="400" width="120" height="60" as="geometry" />
        </mxCell>
        <mxCell id="4x42rTsJrZFUKqrQ-v9c-11" style="edgeStyle=orthogonalEdgeStyle;rounded=0;orthogonalLoop=1;jettySize=auto;html=1;exitX=0.5;exitY=1;exitDx=0;exitDy=0;entryX=0.5;entryY=0;entryDx=0;entryDy=0;" edge="1" parent="1" source="4x42rTsJrZFUKqrQ-v9c-8" target="4x42rTsJrZFUKqrQ-v9c-12">
          <mxGeometry relative="1" as="geometry">
            <mxPoint x="340" y="300" as="targetPoint" />
          </mxGeometry>
        </mxCell>
        <mxCell id="4x42rTsJrZFUKqrQ-v9c-8" value="执行人执行自己部分Task" style="rounded=1;whiteSpace=wrap;html=1;" vertex="1" parent="1">
          <mxGeometry x="280" y="200" width="120" height="60" as="geometry" />
        </mxCell>
        <mxCell id="4x42rTsJrZFUKqrQ-v9c-12" value="结束" style="ellipse;whiteSpace=wrap;html=1;aspect=fixed;" vertex="1" parent="1">
          <mxGeometry x="300" y="290" width="80" height="80" as="geometry" />
        </mxCell>
      </root>
    </mxGraphModel>
  </diagram>
</mxfile>
